<svg width="36" height="32" viewBox="0 0 36 32" fill="none" xmlns="http://www.w3.org/2000/svg">
<g id="Logo">
<g id="Mark">
<path d="M15.4126 28.4376C15.6126 27.9367 15.7081 27.4021 15.6932 26.865C15.7237 25.3764 16.1329 23.9184 16.8843 22.621C17.6338 21.3258 18.7026 20.2321 19.9947 19.438C20.4731 19.1885 20.8945 18.8473 21.2333 18.4349C21.5721 18.0225 21.8214 17.5476 21.966 17.0389C22.1106 16.5301 22.1476 15.9982 22.0746 15.4751C22.0017 14.9521 21.8204 14.4489 21.5416 13.996C21.1693 13.391 20.6334 12.895 19.9947 12.565C19.6285 12.318 19.2767 12.052 18.9414 11.767L18.1011 10.967C16.5612 9.3932 15.6977 7.30708 15.687 5.135C15.7029 4.59777 15.608 4.06288 15.4078 3.56188C15.2077 3.06089 14.9064 2.60395 14.5216 2.218C14.1386 1.83249 13.6797 1.52595 13.1721 1.31668C12.6646 1.10742 12.1189 0.999714 11.5676 1C11.0166 1.00076 10.4714 1.10894 9.96415 1.31815C9.45693 1.52735 8.99801 1.83334 8.61456 2.218C8.23051 2.60462 7.92964 3.06183 7.72953 3.56287C7.52943 4.06391 7.43412 4.59872 7.44918 5.136C7.45817 5.83344 7.65576 6.5163 8.0221 7.116C8.38718 7.71469 8.90841 8.20902 9.53307 8.549C12.0623 10.105 13.8222 13.08 13.8222 16.006C13.816 18.1592 12.9689 20.2298 11.4524 21.799L9.53924 23.451C8.9149 23.79 8.39341 24.284 8.02724 24.884C7.66004 25.483 7.46358 26.167 7.45433 26.865C7.43859 27.4022 7.5336 27.9371 7.73374 28.438C7.93388 28.939 8.23511 29.396 8.6197 29.782C9.00278 30.1674 9.46176 30.4739 9.96928 30.6832C10.4768 30.8924 11.0225 31.0002 11.5738 31C12.1249 30.9994 12.6703 30.8913 13.1777 30.682C13.6852 30.4728 14.1442 30.1668 14.5278 29.782C14.9117 29.3955 15.2125 28.9384 15.4126 28.4376Z" fill="#172B6E"/>
<path d="M20.9996 7.36C20.546 6.698 20.3043 5.919 20.3043 5.123C20.305 4.05673 20.7394 3.034 21.5128 2.278C22.1853 1.62024 23.0723 1.2105 24.0215 1.11909C24.9708 1.02768 25.9232 1.26028 26.7154 1.777C27.3939 2.2199 27.9222 2.84836 28.2335 3.583C28.5449 4.31848 28.6262 5.12692 28.4672 5.9071C28.3082 6.68728 27.916 7.40452 27.3397 7.969C26.7651 8.53193 26.0311 8.91563 25.2312 9.07112C24.4314 9.22661 23.602 9.14685 22.849 8.842C22.0952 8.53685 21.4516 8.02107 20.9996 7.36Z" fill="#172B6E"/>
<path d="M22.1362 23.518C22.814 23.076 23.6111 22.84 24.4258 22.84V22.838C24.9673 22.8386 25.5033 22.9432 26.0032 23.1457C26.5031 23.3482 26.9569 23.6446 27.3387 24.018C28.0134 24.6779 28.433 25.544 28.5267 26.47C28.6204 27.3959 28.3824 28.3249 27.853 29.1C27.401 29.762 26.757 30.2785 26.0026 30.584C25.2495 30.8888 24.4202 30.9686 23.6203 30.8131C22.8204 30.6576 22.0864 30.2739 21.5118 29.711C20.9353 29.1464 20.543 28.429 20.384 27.6486C20.225 26.8683 20.3064 26.0596 20.618 25.324C20.9294 24.5894 21.4577 23.9609 22.1362 23.518Z" fill="#172B6E"/>
<path d="M34.2764 13.758C34.7288 14.4198 34.9705 15.1974 34.9707 15.9931C34.97 17.0597 34.5355 18.0827 33.7621 18.839C33.3802 19.2122 32.9264 19.5086 32.4265 19.7111C31.9267 19.9136 31.3907 20.0182 30.8492 20.019C30.0337 20.019 29.2366 19.783 28.5596 19.341C27.8811 18.8981 27.3528 18.2696 27.0414 17.535C26.7298 16.7994 26.6484 15.9907 26.8074 15.2104C26.9664 14.43 27.3587 13.7126 27.9352 13.148C28.5099 12.5849 29.2441 12.2011 30.0442 12.0456C30.8443 11.8901 31.6739 11.9699 32.427 12.275C33.1809 12.5804 33.8246 13.0966 34.2764 13.758Z" fill="#172B6E"/>
<path d="M2.85969 12.647C3.53752 12.205 4.33363 11.969 5.14929 11.969C5.69068 11.9701 6.22652 12.075 6.72617 12.2776C7.22583 12.4803 7.67948 12.7767 8.06118 13.15C8.73552 13.8097 9.15498 14.6754 9.24868 15.601C9.34238 16.5265 9.10459 17.4552 8.57546 18.23C8.12358 18.8914 7.47994 19.4075 6.72609 19.713C5.97281 20.0164 5.14381 20.0953 4.34428 19.9399C3.54475 19.7845 2.81073 19.4017 2.23535 18.84C1.65904 18.2755 1.26684 17.5583 1.10784 16.7781C0.948848 15.9979 1.03013 15.1895 1.34152 14.454C1.65276 13.719 2.18106 13.0902 2.85969 12.647Z" fill="#172B6E"/>
</g>
</g>
</svg>
